{
  "accessors": [
    {
      "bufferView": 2,
      "componentType": 5126,
      "count": 1452,
      "max": [
        1.4492504596710205,
        2.8769445419311523,
        1.0228328704833984
      ],
      "min": [
        -1.4533425569534302,
        0,
        0.012222019024193287
      ],
      "type": "VEC3"
    },
    {
      "bufferView": 2,
      "byteOffset": 17424,
      "componentType": 5126,
      "count": 1452,
      "max": [
        0.99112200736999512,
        0.99975204467773438,
        0.99089151620864868
      ],
      "min": [
        -0.99111449718475342,
        -0.99976456165313721,
        -0.99089151620864868
      ],
      "type": "VEC3"
    },
    {
      "bufferView": 3,
      "componentType": 5126,
      "count": 1452,
      "max": [
        0.99112391471862793,
        0.99976933002471924,
        0.13465411961078644,
        1
      ],
      "min": [
        -0.99111425876617432,
        -0.99974387884140015,
        -0.13460168242454529,
        -1
      ],
      "type": "VEC4"
    },
    {
      "bufferView": 1,
      "componentType": 5126,
      "count": 1452,
      "max": [
        1,
        1
      ],
      "min": [
        0,
        0
      ],
      "type": "VEC2"
    },
    {
      "bufferView": 0,
      "componentType": 5125,
      "count": 5502,
      "max": [
        1451
      ],
      "min": [
        0
      ],
      "type": "SCALAR"
    }
  ],
  "asset": {
    "extras": {
      "author": "neoneon (https://sketchfab.com/neoneon)",
      "license": "CC-BY-4.0 (http://creativecommons.org/licenses/by/4.0/)",
      "source": "https://sketchfab.com/3d-models/stylehint-logo-002-5077d2d1e60f4bc49f801e11d8bb5710",
      "title": "StyleHint Logo 0.0.2"
    },
    "generator": "Sketchfab-6.99.1",
    "version": "2.0"
  },
  "bufferViews": [
    {
      "buffer": 0,
      "byteLength": 22008,
      "byteOffset": 0,
      "name": "floatBufferViews",
      "target": 34963
    },
    {
      "buffer": 0,
      "byteLength": 11616,
      "byteOffset": 22008,
      "byteStride": 8,
      "name": "floatBufferViews",
      "target": 34962
    },
    {
      "buffer": 0,
      "byteLength": 34848,
      "byteOffset": 33624,
      "byteStride": 12,
      "name": "floatBufferViews",
      "target": 34962
    },
    {
      "buffer": 0,
      "byteLength": 23232,
      "byteOffset": 68472,
      "byteStride": 16,
      "name": "floatBufferViews",
      "target": 34962
    }
  ],
  "buffers": [
    {
      "byteLength": 91704,
      "uri": "scene.bin"
    }
  ],
  "images": [
    {
      "uri": "textures/Clean_Gold_normal.png"
    }
  ],
  "materials": [
    {
      "doubleSided": false,
      "emissiveFactor": [
        0,
        0,
        0
      ],
      "name": "Clean_Gold",
      "normalTexture": {
        "index": 0,
        "scale": 1,
        "texCoord": 0
      },
      "pbrMetallicRoughness": {
        "baseColorFactor": [
          1,
          0.76052500000000001,
          0.32777800000000001,
          1
        ],
        "metallicFactor": 1,
        "roughnessFactor": 0.109804
      }
    }
  ],
  "meshes": [
    {
      "primitives": [
        {
          "attributes": {
            "NORMAL": 1,
            "POSITION": 0,
            "TANGENT": 2,
            "TEXCOORD_0": 3
          },
          "indices": 4,
          "material": 0,
          "mode": 4
        }
      ]
    }
  ],
  "nodes": [
    {
      "children": [
        1
      ],
      "name": "RootNode (gltf orientation matrix)",
      "rotation": [
        -0.70710678118654746,
        -0,
        -0,
        0.70710678118654757
      ]
    },
    {
      "children": [
        2
      ],
      "name": "RootNode (model correction matrix)"
    },
    {
      "children": [
        3
      ],
      "name": "root"
    },
    {
      "children": [
        4
      ],
      "matrix": [
        1,
        0,
        0,
        0,
        0,
        2.2204460492503131e-16,
        1,
        0,
        0,
        -1,
        2.2204460492503131e-16,
        0,
        0,
        0,
        0,
        1
      ],
      "name": "GLTF_SceneRootNode"
    },
    {
      "children": [
        5
      ],
      "matrix": [
        0.89879398479426587,
        -6.279167468895509e-15,
        -0.43837154482954105,
        0,
        7.5146717161951952e-15,
        1,
        1.08349703106078e-15,
        0,
        0.43837154482954105,
        -4.2680588631752215e-15,
        0.89879398479426587,
        0,
        -0.22503036260604858,
        -2.0080737135499786e-14,
        -0.46435615420341492,
        1
      ],
      "name": "Layer 1_1"
    },
    {
      "mesh": 0,
      "name": ""
    }
  ],
  "samplers": [
    {
      "magFilter": 9729,
      "minFilter": 9987,
      "wrapS": 10497,
      "wrapT": 10497
    }
  ],
  "scene": 0,
  "scenes": [
    {
      "name": "OSG_Scene",
      "nodes": [
        0
      ]
    }
  ],
  "textures": [
    {
      "sampler": 0,
      "source": 0
    }
  ]
}

